<?xml version="1.0" standalone="no"?><!DOCTYPE svg PUBLIC "-//W3C//DTD SVG 1.1//EN" "http://www.w3.org/Graphics/SVG/1.1/DTD/svg11.dtd"><svg t="1653573220065" class="icon" viewBox="0 0 1024 1024" version="1.1" xmlns="http://www.w3.org/2000/svg" p-id="5198" xmlns:xlink="http://www.w3.org/1999/xlink" width="128" height="128"><defs><style type="text/css">@font-face { font-family: feedback-iconfont; src: url("//at.alicdn.com/t/font_1031158_u69w8yhxdu.woff2?t=1630033759944") format("woff2"), url("//at.alicdn.com/t/font_1031158_u69w8yhxdu.woff?t=1630033759944") format("woff"), url("//at.alicdn.com/t/font_1031158_u69w8yhxdu.ttf?t=1630033759944") format("truetype"); }
</style></defs><path d="M346.76775 0v142.094291h118.772405V0h77.455146v142.094291h118.654693V0h77.455146v142.094291h144.448551v134.266377h140.387453v77.455147h-140.416882v118.772405h140.387453v77.455146h-140.387453v118.772406h140.387453v77.455146h-140.387453v135.56122h-144.44855v142.138434h-77.425718v-142.138434h-118.742977v142.138434h-77.455147v-142.138434h-118.772405v142.138434h-77.455146v-142.138434h-125.364333v-135.56122H0v-77.455146h143.845272v-118.772406H0v-77.455146h143.845272v-118.757691H0v-77.455146h143.845272V142.094291h125.379047V0h77.543431z m459.448507 219.549437H221.315132v584.827555h584.842269z m-118.772405 118.772406v347.253315h-347.253316v-347.253315h347.253316z m-77.455146 77.455146H417.557398V608.134726h192.357737z" fill="#3F51B5" p-id="5199"></path></svg>