<?xml version="1.0" standalone="no"?><!DOCTYPE svg PUBLIC "-//W3C//DTD SVG 1.1//EN" "http://www.w3.org/Graphics/SVG/1.1/DTD/svg11.dtd"><svg t="1653574265155" class="icon" viewBox="0 0 1024 1024" version="1.1" xmlns="http://www.w3.org/2000/svg" p-id="7170" xmlns:xlink="http://www.w3.org/1999/xlink" width="128" height="128"><defs><style type="text/css">@font-face { font-family: feedback-iconfont; src: url("//at.alicdn.com/t/font_1031158_u69w8yhxdu.woff2?t=1630033759944") format("woff2"), url("//at.alicdn.com/t/font_1031158_u69w8yhxdu.woff?t=1630033759944") format("woff"), url("//at.alicdn.com/t/font_1031158_u69w8yhxdu.ttf?t=1630033759944") format("truetype"); }
</style></defs><path d="M155.822 327.578l-1.29 0.645v364.513l357.427 187.7V505.343z" fill="#FFFFFF" p-id="7171"></path><path d="M868.424 327.905l-356.782-187.72-342.324 180.02-13.824 7.393 356.148 177.746 4.178-1.925L869.376 328.55l-0.963-0.645zM514.867 503.398l-4.178 3.206 4.178-3.206z" fill="#0589f5" p-id="7172" data-spm-anchor-id="a313x.7781069.0.i16" class=""></path><path d="M939.786 293.51a61.716 61.716 0 0 0-25.395-26.676L538.961 68.188a58.819 58.819 0 0 0-54.64 0L109.21 265.544a53.043 53.043 0 0 0-15.432 13.824 59.464 59.464 0 0 0-9.636 12.533 55.286 55.286 0 0 0-7.066 26.686v385.71a59.146 59.146 0 0 0 32.134 52.07l374.784 197.356a64.287 64.287 0 0 0 26.685 7.72h4.506a61.716 61.716 0 0 0 22.814-6.112l374.784-198.319a59.781 59.781 0 0 0 32.144-52.715v-385.71a57.21 57.21 0 0 0-5.14-25.078z m-70.41 35.04L515.82 503.398l-4.178 2.253v375.091L153.887 692.736V328.223l13.824-7.394 343.93-180.633 356.783 187.699 0.962 0.655z" fill="#3f51b5" p-id="7173" data-spm-anchor-id="a313x.7781069.0.i19" class=""></path></svg>