<?xml version="1.0" standalone="no"?><!DOCTYPE svg PUBLIC "-//W3C//DTD SVG 1.1//EN" "http://www.w3.org/Graphics/SVG/1.1/DTD/svg11.dtd"><svg t="1653661055177" class="icon" viewBox="0 0 1024 1024" version="1.1" xmlns="http://www.w3.org/2000/svg" p-id="2981" xmlns:xlink="http://www.w3.org/1999/xlink" width="128" height="128"><defs><style type="text/css">@font-face { font-family: feedback-iconfont; src: url("//at.alicdn.com/t/font_1031158_u69w8yhxdu.woff2?t=1630033759944") format("woff2"), url("//at.alicdn.com/t/font_1031158_u69w8yhxdu.woff?t=1630033759944") format("woff"), url("//at.alicdn.com/t/font_1031158_u69w8yhxdu.ttf?t=1630033759944") format("truetype"); }
</style></defs><path d="M438.857143 0a170.666667 170.666667 0 0 1 170.666667 170.666667h97.523809a146.285714 146.285714 0 0 1 146.188191 140.8L853.333333 316.952381v97.523809a170.666667 170.666667 0 0 1 5.851429 341.23581L853.333333 755.809524v121.904762a146.285714 146.285714 0 0 1-140.8 146.18819L707.047619 1024h-195.047619v-97.52381a73.142857 73.142857 0 0 0-146.285714 0v97.52381H146.285714a146.285714 146.285714 0 0 1-146.18819-140.8L0 877.714286v-219.428572h97.52381a73.142857 73.142857 0 0 0 0-146.285714H0v-195.047619a146.285714 146.285714 0 0 1 140.8-146.188191L146.285714 170.666667h121.904762a170.666667 170.666667 0 0 1 170.666667-170.666667z m316.952381 316.952381a48.761905 48.761905 0 0 0-48.761905-48.761905h-195.047619V170.666667h-146.285714v97.523809H146.285714a48.761905 48.761905 0 0 0-48.64 45.104762L97.52381 316.952381v97.523809a170.666667 170.666667 0 0 1 5.851428 341.23581L97.52381 755.809524v121.904762a48.761905 48.761905 0 0 0 45.104761 48.64L146.285714 926.47619h121.904762a170.666667 170.666667 0 0 1 341.333334 0h97.523809a48.761905 48.761905 0 0 0 48.64-45.104761L755.809524 877.714286v-219.428572h97.523809l4.291048-0.121904A73.142857 73.142857 0 0 0 853.333333 512h-97.523809v-195.047619zM438.857143 97.52381a73.142857 73.142857 0 0 0-73.020953 68.851809L365.714286 170.666667h146.285714a73.142857 73.142857 0 0 0-73.142857-73.142857z" p-id="2982" fill="#3f51b5"></path></svg>